<svg width="42" height="50" viewBox="0 0 42 50" fill="none" xmlns="http://www.w3.org/2000/svg">
<path id="Vector" d="M11 10C11 2.5 15.75 0 21 0C26.25 0 31 2.5 31 10C31 17.5 27 20 26.25 20.5C25.5 21 25.75 21.5 26.75 21.25C27.75 21 41.5 18.75 41.5 29.5C41.5 40.25 32.25 39.5 31.25 39.5C30.25 39.5 27.4444 38.75 25.5 36.25C23.5556 33.75 23.3158 37.75 25.25 43C27.1842 48.25 30 50 30 50H12C12 50 14.8158 48.25 16.75 43C18.6842 37.75 18.4444 33.75 16.5 36.25C14.5556 38.75 11.75 39.5 10.75 39.5C9.75 39.5 0.5 40.25 0.5 29.5C0.5 18.75 14.25 21 15.25 21.25C16.25 21.5 16.5 21 15.75 20.5C15 20 11 17.5 11 10Z" fill="#333333"/>
</svg>
